<svg xmlns="http://www.w3.org/2000/svg" viewBox="0 0 86.21 10.7"><title>logo</title><path d="M116.88,47.38h1.57l2.56,4,2.56-4h1.57v8.4h-1.46v-6l-2.65,4h0l-2.63-3.94v6h-1.46Z" transform="translate(-116.88 -47.02)" style="fill:#fff"/><path d="M127.15,47.09h1.57v1.38h-1.57Zm.06,2.35h1.46v6.34h-1.46Z" transform="translate(-116.88 -47.02)" style="fill:#fff"/><path d="M133.5,55.93a3.27,3.27,0,0,1-2.35-1,3.18,3.18,0,0,1-.69-1,3.28,3.28,0,0,1-.25-1.27v0a3.33,3.33,0,0,1,.25-1.28,3.24,3.24,0,0,1,.69-1.06,3.29,3.29,0,0,1,1-.71,3.26,3.26,0,0,1,1.31-.26,3.31,3.31,0,0,1,1.49.3,3.55,3.55,0,0,1,1,.79l-.9,1a3.39,3.39,0,0,0-.71-.57,1.81,1.81,0,0,0-.93-.22,1.66,1.66,0,0,0-.73.16,1.82,1.82,0,0,0-.58.43,2,2,0,0,0-.38.64,2.23,2.23,0,0,0-.14.78v0a2.26,2.26,0,0,0,.14.79,2,2,0,0,0,.39.65,1.88,1.88,0,0,0,.6.44,1.94,1.94,0,0,0,1.67-.06,3.49,3.49,0,0,0,.74-.57l.88.86a4,4,0,0,1-1.07.86A3.14,3.14,0,0,1,133.5,55.93Z" transform="translate(-116.88 -47.02)" style="fill:#fff"/><path d="M137.41,47h1.46v5.23l2.63-2.81h1.76L140.75,52l2.6,3.76h-1.68L139.77,53l-.89.92v1.81h-1.46Z" transform="translate(-116.88 -47.02)" style="fill:#fff"/><path d="M148.27,55.78V55a2.72,2.72,0,0,1-.83.65,2.61,2.61,0,0,1-1.22.26,2.91,2.91,0,0,1-.86-.13,2.12,2.12,0,0,1-.71-.37A1.8,1.8,0,0,1,144,54v0a2.06,2.06,0,0,1,.19-.92,1.79,1.79,0,0,1,.53-.65,2.33,2.33,0,0,1,.82-.38,4,4,0,0,1,1-.13,5.68,5.68,0,0,1,1,.07,6,6,0,0,1,.77.19V52a1.26,1.26,0,0,0-.4-1,1.72,1.72,0,0,0-1.16-.35,3.85,3.85,0,0,0-1,.11,6.3,6.3,0,0,0-.85.29l-.4-1.16a6.67,6.67,0,0,1,1.08-.38,5.35,5.35,0,0,1,1.33-.14,2.81,2.81,0,0,1,2.1.7,2.71,2.71,0,0,1,.68,2v3.76Zm0-2.65a3.7,3.7,0,0,0-.65-.18,4.27,4.27,0,0,0-.8-.07,1.87,1.87,0,0,0-1.07.26.83.83,0,0,0-.38.72v0a.79.79,0,0,0,.35.7,1.51,1.51,0,0,0,.87.24,2.2,2.2,0,0,0,.67-.1,1.71,1.71,0,0,0,.53-.27,1.22,1.22,0,0,0,.35-.42,1.18,1.18,0,0,0,.13-.55Z" transform="translate(-116.88 -47.02)" style="fill:#fff"/><path d="M154.35,55.93a3.38,3.38,0,0,1-1.28-.24A3.06,3.06,0,0,1,151.35,54a3.45,3.45,0,0,1-.25-1.34v0a3.58,3.58,0,0,1,.23-1.28,3.24,3.24,0,0,1,.64-1,3,3,0,0,1,1-.71,3,3,0,0,1,1.25-.26,3,3,0,0,1,1.33.28,2.73,2.73,0,0,1,.95.74,3.24,3.24,0,0,1,.57,1.09,4.36,4.36,0,0,1,.19,1.3c0,.06,0,.13,0,.2s0,.14,0,.21h-4.66a1.85,1.85,0,0,0,.62,1.19,1.83,1.83,0,0,0,1.21.41,2.13,2.13,0,0,0,.94-.19,3,3,0,0,0,.78-.56l.85.76a3.51,3.51,0,0,1-1.09.86A3.25,3.25,0,0,1,154.35,55.93Zm1.44-3.76a2.46,2.46,0,0,0-.16-.65,1.68,1.68,0,0,0-.32-.53,1.55,1.55,0,0,0-.49-.35,1.5,1.5,0,0,0-.64-.13,1.46,1.46,0,0,0-1.11.46,2.09,2.09,0,0,0-.53,1.21Z" transform="translate(-116.88 -47.02)" style="fill:#fff"/><path d="M158.77,47h1.46v8.76h-1.46Z" transform="translate(-116.88 -47.02)" style="fill:#fff"/><path d="M165.29,54.09l4.21-4.74h-4.07v-2h7.28v1.69l-4.21,4.74h4.21v2h-7.43Z" transform="translate(-116.88 -47.02)" style="fill:#fff"/><path d="M173.8,47h2.29v3.16a3.2,3.2,0,0,1,.77-.72,2,2,0,0,1,1.15-.31,2.11,2.11,0,0,1,1.63.64,2.49,2.49,0,0,1,.58,1.75v4.25h-2.29V52.27a1.18,1.18,0,0,0-.25-.82.84.84,0,0,0-.65-.28.9.9,0,0,0-.68.28,1.13,1.13,0,0,0-.27.82v3.52H173.8Z" transform="translate(-116.88 -47.02)" style="fill:#fff"/><path d="M183.26,55.93a2.72,2.72,0,0,1-.86-.13,2,2,0,0,1-.69-.38,1.77,1.77,0,0,1-.46-.62,2.07,2.07,0,0,1-.17-.86v0a2,2,0,0,1,.19-.89,1.74,1.74,0,0,1,.52-.64,2.34,2.34,0,0,1,.8-.38,3.85,3.85,0,0,1,1-.13,4.72,4.72,0,0,1,.87.08,4.94,4.94,0,0,1,.69.17V52a1,1,0,0,0-.32-.78,1.46,1.46,0,0,0-1-.28,4.23,4.23,0,0,0-.94.1,6.19,6.19,0,0,0-.85.26l-.47-1.61a7.17,7.17,0,0,1,1.17-.37,6.78,6.78,0,0,1,1.46-.14,4.68,4.68,0,0,1,1.48.2,2.51,2.51,0,0,1,1,.59,2.05,2.05,0,0,1,.53.87,3.94,3.94,0,0,1,.16,1.19v3.73h-2.26v-.67a2.42,2.42,0,0,1-1.91.82Zm.82-1.43a1.15,1.15,0,0,0,.82-.29,1,1,0,0,0,.31-.78v-.3a2.09,2.09,0,0,0-.4-.12,2.42,2.42,0,0,0-.49,0,1.19,1.19,0,0,0-.77.22.72.72,0,0,0-.27.58v0a.63.63,0,0,0,.23.52A.88.88,0,0,0,184.08,54.5Z" transform="translate(-116.88 -47.02)" style="fill:#fff"/><path d="M188.59,49.29h2.29v.91a3.89,3.89,0,0,1,.34-.4,2.22,2.22,0,0,1,.43-.34,2.37,2.37,0,0,1,.52-.23,2.07,2.07,0,0,1,.63-.09,2.11,2.11,0,0,1,1.63.64,2.49,2.49,0,0,1,.58,1.75v4.25h-2.29V52.27a1.18,1.18,0,0,0-.25-.82.84.84,0,0,0-.65-.28.9.9,0,0,0-.68.28,1.13,1.13,0,0,0-.27.82v3.52h-2.29Z" transform="translate(-116.88 -47.02)" style="fill:#fff"/><path d="M199.39,57.73a7.47,7.47,0,0,1-1.75-.19,6.86,6.86,0,0,1-1.51-.55l.73-1.51a5.61,5.61,0,0,0,1.07.45,4.18,4.18,0,0,0,1.2.16,1.78,1.78,0,0,0,1.28-.41,1.58,1.58,0,0,0,.42-1.19v-.25a3.6,3.6,0,0,1-.82.68,2.24,2.24,0,0,1-1.19.29,3,3,0,0,1-1.12-.21,2.69,2.69,0,0,1-.91-.6,2.85,2.85,0,0,1-.62-.95,3.3,3.3,0,0,1-.23-1.25v0a3.35,3.35,0,0,1,.23-1.26,2.89,2.89,0,0,1,.61-1,2.66,2.66,0,0,1,.89-.6,2.79,2.79,0,0,1,1.07-.21,2.42,2.42,0,0,1,1.2.26,3.68,3.68,0,0,1,.84.65v-.77h2.28v4.93a5,5,0,0,1-.2,1.53,2.61,2.61,0,0,1-.64,1.06,2.88,2.88,0,0,1-1.14.68A5.43,5.43,0,0,1,199.39,57.73Zm.13-4.27a1.31,1.31,0,0,0,.95-.36,1.2,1.2,0,0,0,.37-.9v0a1.18,1.18,0,0,0-.37-.89,1.45,1.45,0,0,0-1.91,0,1.2,1.2,0,0,0-.37.9v0a1.18,1.18,0,0,0,.37.89A1.33,1.33,0,0,0,199.52,53.45Z" transform="translate(-116.88 -47.02)" style="fill:#fff"/></svg>
